<?xml version="1.0" encoding="UTF-8"?>
<svg version="1.1" xmlns="http://www.w3.org/2000/svg" width="2250" height="2250">
<path d="M0 0 C2.84412742 -0.00196306 5.68823149 -0.00995753 8.53234851 -0.01761746 C14.67391935 -0.03102975 20.81534747 -0.02998001 26.95692098 -0.01888329 C36.15104639 -0.00234697 45.3450585 -0.00928516 54.53918682 -0.02041385 C70.21765981 -0.0387203 85.89608068 -0.03825977 101.57455826 -0.02729034 C117.44526345 -0.01625435 133.31593441 -0.01398873 149.18664169 -0.02223969 C150.69473694 -0.02301472 150.69473694 -0.02301472 152.23329876 -0.02380541 C156.32866095 -0.02593869 160.42402311 -0.02813355 164.51938523 -0.03040652 C202.59492567 -0.05152382 240.67044318 -0.0530164 278.74598694 -0.04181671 C279.87245629 -0.04148553 280.99892565 -0.04115435 282.15953044 -0.04081313 C283.85196274 -0.04031555 283.85196274 -0.04031555 285.57858559 -0.03980792 C319.98938962 -0.02970456 354.40018418 -0.02711456 388.81098938 -0.0318985 C391.11767128 -0.03220842 393.42435319 -0.03251704 395.73103509 -0.03282438 C405.00125284 -0.03406631 414.27147058 -0.03534098 423.54168831 -0.03666343 C449.45379717 -0.04033099 475.36590605 -0.04261374 501.27801514 -0.04380798 C502.45786992 -0.04386257 503.6377247 -0.04391715 504.85333266 -0.04397339 C542.43364615 -0.04560985 580.01395634 -0.04110629 617.5942688 -0.03240967 C618.81267517 -0.03212867 620.03108154 -0.03184768 621.28640931 -0.03155816 C641.07099663 -0.02697869 660.85558389 -0.02210069 680.64017113 -0.01719747 C759.10209812 0.00222702 837.56399781 0.00132542 916.02592468 -0.01811981 C935.80066932 -0.0230048 955.57541397 -0.0278491 975.35015869 -0.03240967 C976.5678565 -0.03269146 977.78555432 -0.03297325 979.04015206 -0.03326359 C1016.58223926 -0.04189175 1054.12432419 -0.04554478 1091.66641235 -0.04380798 C1092.84539446 -0.04375365 1094.02437656 -0.04369931 1095.2390854 -0.04364333 C1121.12268292 -0.04239327 1147.0062802 -0.03985842 1172.88987749 -0.03616597 C1182.15167531 -0.03484948 1191.41347313 -0.03359714 1200.67527096 -0.03236313 C1202.97924387 -0.03205357 1205.28321678 -0.03173865 1207.58718969 -0.03141834 C1241.98642948 -0.02664914 1276.38565859 -0.0306997 1310.78489705 -0.04081313 C1312.47460108 -0.0413099 1312.47460108 -0.0413099 1314.19844055 -0.04181671 C1315.32282053 -0.04214744 1316.44720051 -0.04247817 1317.60565261 -0.04281892 C1355.57413729 -0.05386499 1393.5425945 -0.04976664 1431.51107526 -0.02869374 C1435.59331208 -0.02648445 1439.67554892 -0.02433762 1443.7577858 -0.02223969 C1445.26050274 -0.02145844 1445.26050274 -0.02145844 1446.79357761 -0.02066142 C1462.61729747 -0.0127907 1478.44098302 -0.01824467 1494.26469977 -0.02931571 C1509.8469461 -0.03993119 1525.42913488 -0.0361203 1541.01137396 -0.01725936 C1550.13055034 -0.00664061 1559.24956841 -0.00670904 1568.36873698 -0.02318575 C1574.44667524 -0.03305494 1580.52449181 -0.02808773 1586.60241556 -0.01171833 C1590.03393475 -0.00287122 1593.46489102 -0.00197339 1596.8964325 -0.0149844 C1676.97303126 -0.29678902 1754.93533482 29.39858504 1814.14408875 83.39398956 C1816.20374408 85.26012023 1818.29610269 87.07406244 1820.40971375 88.87836456 C1828.38028518 95.83244612 1835.58432496 103.49223461 1842.47221375 111.50336456 C1843.29362854 112.45674713 1843.29362854 112.45674713 1844.13163757 113.42938995 C1853.39562913 124.26444345 1861.71853471 135.54375095 1869.47221375 147.50336456 C1869.94755554 148.23635773 1870.42289734 148.96935089 1870.91264343 149.72455597 C1905.54023035 203.65296373 1922.21756827 265.20840046 1921.97557831 329.03115082 C1921.97754137 331.87527823 1921.98553584 334.71938231 1921.99319577 337.56349933 C1922.00660805 343.70507017 1922.00555832 349.84649828 1921.9944616 355.9880718 C1921.97792528 365.1821972 1921.98486347 374.37620932 1921.99599216 383.57033764 C1922.01429861 399.24881063 1922.01383808 414.9272315 1922.00286865 430.60570908 C1921.99183265 446.47641427 1921.98956704 462.34708523 1921.99781799 478.21779251 C1921.99833468 479.22318934 1921.99885137 480.22858617 1921.99938372 481.26444958 C1922.001517 485.35981177 1922.00371186 489.45517393 1922.00598482 493.55053604 C1922.02710213 531.62607649 1922.0285947 569.701594 1922.01739502 607.77713776 C1922.01706384 608.90360711 1922.01673266 610.03007647 1922.01639144 611.19068126 C1922.01605972 612.31896946 1922.015728 613.44725766 1922.01538623 614.60973641 C1922.00528287 649.02054044 1922.00269286 683.431335 1922.00747681 717.8421402 C1922.00778673 720.1488221 1922.00809535 722.455504 1922.00840269 724.76218591 C1922.00964462 734.03240365 1922.01091929 743.3026214 1922.01224174 752.57283913 C1922.01590929 778.48494798 1922.01819205 804.39705687 1922.01938629 830.30916595 C1922.01944087 831.48902074 1922.01949546 832.66887552 1922.01955169 833.88448348 C1922.02118816 871.46479697 1922.0166846 909.04510716 1922.00798798 946.62541962 C1922.00756648 948.45302917 1922.00756648 948.45302917 1922.00713647 950.31756013 C1922.00255699 970.10214745 1921.997679 989.88673471 1921.99277578 1009.67132195 C1921.97335129 1088.13324894 1921.97425288 1166.59514863 1921.99369812 1245.0570755 C1921.99858311 1264.83182014 1922.00342741 1284.60656479 1922.00798798 1304.38130951 C1922.00841067 1306.20785623 1922.00841067 1306.20785623 1922.00884189 1308.07130288 C1922.01747005 1345.61339008 1922.02112308 1383.15547501 1922.01938629 1420.69756317 C1922.01930479 1422.46603633 1922.01930479 1422.46603633 1922.01922163 1424.27023622 C1922.01797157 1450.15383374 1922.01543673 1476.03743102 1922.01174428 1501.92102831 C1922.01042779 1511.18282612 1922.00917545 1520.44462395 1922.00794144 1529.70642178 C1922.00763188 1532.01039469 1922.00731696 1534.3143676 1922.00699665 1536.61834051 C1922.00222744 1571.0175803 1922.00627801 1605.41680941 1922.01639144 1639.81604787 C1922.01688821 1641.5057519 1922.01688821 1641.5057519 1922.01739502 1643.22959137 C1922.01772575 1644.35397135 1922.01805648 1645.47835133 1922.01839723 1646.63680343 C1922.02944329 1684.6052881 1922.02534495 1722.57374532 1922.00427204 1760.54222608 C1922.00206276 1764.62446289 1921.99991592 1768.70669974 1921.99781799 1772.78893661 C1921.99729717 1773.79074791 1921.99677634 1774.79255921 1921.99623973 1775.82472842 C1921.98836901 1791.64844829 1921.99382297 1807.47213383 1922.00489402 1823.29585059 C1922.0155095 1838.87809692 1922.01169861 1854.4602857 1921.99283767 1870.04252478 C1921.98221891 1879.16170116 1921.98228735 1888.28071922 1921.99876405 1897.3998878 C1922.00863325 1903.47782605 1922.00366603 1909.55564263 1921.98729664 1915.63356638 C1921.97844952 1919.06508556 1921.97755169 1922.49604183 1921.99056271 1925.92758332 C1922.27236732 2006.00418208 1892.57699327 2083.96648564 1838.58158875 2143.17523956 C1836.71545807 2145.2348949 1834.90151586 2147.32725351 1833.09721375 2149.44086456 C1826.14313219 2157.41143599 1818.4833437 2164.61547577 1810.47221375 2171.50336456 C1809.83662537 2172.05097443 1809.20103699 2172.59858429 1808.54618835 2173.16278839 C1797.71113486 2182.42677995 1786.43182735 2190.74968553 1774.47221375 2198.50336456 C1773.73922058 2198.97870636 1773.00622742 2199.45404816 1772.25102234 2199.94379425 C1718.32261458 2234.57138117 1656.76717785 2251.24871909 1592.94442749 2251.00672913 C1590.10030007 2251.00869218 1587.256196 2251.01668666 1584.41207898 2251.02434659 C1578.27050814 2251.03775887 1572.12908003 2251.03670914 1565.98750651 2251.02561241 C1556.7933811 2251.0090761 1547.59936899 2251.01601429 1538.40524067 2251.02714298 C1522.72676768 2251.04544943 1507.04834681 2251.0449889 1491.36986923 2251.03401947 C1475.49916404 2251.02298347 1459.62849308 2251.02071786 1443.7577858 2251.02896881 C1442.24969055 2251.02974385 1442.24969055 2251.02974385 1440.71112873 2251.03053454 C1436.61576654 2251.03266781 1432.52040438 2251.03486267 1428.42504226 2251.03713564 C1390.34950182 2251.05825294 1352.27398431 2251.05974552 1314.19844055 2251.04854584 C1313.0719712 2251.04821466 1311.94550184 2251.04788347 1310.78489705 2251.04754226 C1309.65660885 2251.04721054 1308.52832065 2251.04687882 1307.3658419 2251.04653705 C1272.95503787 2251.03643369 1238.54424331 2251.03384368 1204.13343811 2251.03862762 C1201.82675621 2251.03893754 1199.5200743 2251.03924617 1197.2133924 2251.0395535 C1187.94317465 2251.04079543 1178.67295691 2251.04207011 1169.40273918 2251.04339256 C1143.49063032 2251.04706011 1117.57852144 2251.04934287 1091.66641235 2251.05053711 C1090.48655757 2251.05059169 1089.30670279 2251.05064628 1088.09109483 2251.05070251 C1050.51078134 2251.05233898 1012.93047115 2251.04783541 975.35015869 2251.03913879 C974.13175232 2251.0388578 972.91334596 2251.0385768 971.65801818 2251.03828729 C951.87343086 2251.03370781 932.0888436 2251.02882981 912.30425636 2251.0239266 C833.84232937 2251.00450211 755.38042968 2251.0054037 676.91850281 2251.02484894 C657.14375817 2251.02973393 637.36901352 2251.03457823 617.5942688 2251.03913879 C616.37657099 2251.03942059 615.15887317 2251.03970238 613.90427543 2251.03999271 C576.36218823 2251.04862087 538.8201033 2251.0522739 501.27801514 2251.05053711 C500.09903303 2251.05048277 498.92005093 2251.05042843 497.70534209 2251.05037245 C471.82174457 2251.04912239 445.93814729 2251.04658755 420.05455 2251.0428951 C410.79275219 2251.0415786 401.53095436 2251.04032627 392.26915653 2251.03909225 C389.96518362 2251.0387827 387.66121071 2251.03846778 385.3572378 2251.03814747 C350.95799801 2251.03337826 316.5587689 2251.03742883 282.15953044 2251.04754226 C280.46982641 2251.04803903 280.46982641 2251.04803903 278.74598694 2251.04854584 C277.62160696 2251.04887657 276.49722698 2251.0492073 275.33877488 2251.04954805 C237.3702902 2251.06059411 199.40183299 2251.05649577 161.43335223 2251.03542286 C157.35111541 2251.03321357 153.26887857 2251.03106674 149.18664169 2251.02896881 C148.1848304 2251.02844798 147.1830191 2251.02792716 146.15084988 2251.02739055 C130.32713002 2251.01951983 114.50344448 2251.02497379 98.67972772 2251.03604483 C83.09748139 2251.04666032 67.51529261 2251.04284943 51.93305353 2251.02398848 C42.81387715 2251.01336973 33.69485908 2251.01343816 24.57569051 2251.02991487 C18.49775225 2251.03978406 12.41993568 2251.03481685 6.34201193 2251.01844746 C2.91049275 2251.00960034 -0.52046353 2251.00870251 -3.95200501 2251.02171353 C-84.02860377 2251.30351814 -161.99090733 2221.60814408 -221.19966125 2167.61273956 C-223.25931659 2165.74660889 -225.3516752 2163.93266668 -227.46528625 2162.12836456 C-235.43585769 2155.17428301 -242.63989747 2147.51449452 -249.52778625 2139.50336456 C-250.07539612 2138.86777618 -250.62300598 2138.23218781 -251.18721008 2137.57733917 C-260.45120164 2126.74228568 -268.77410722 2115.46297817 -276.52778625 2103.50336456 C-277.00312805 2102.7703714 -277.47846985 2102.03737823 -277.96821594 2101.28217316 C-312.59580286 2047.35376539 -329.27314078 1985.79832867 -329.03115082 1921.97557831 C-329.03311388 1919.13145089 -329.04110835 1916.28734682 -329.04876828 1913.44322979 C-329.06218056 1907.30165895 -329.06113083 1901.16023084 -329.05003411 1895.01865733 C-329.03349779 1885.82453192 -329.04043598 1876.63051981 -329.05156467 1867.43639149 C-329.06987112 1851.7579185 -329.06941059 1836.07949763 -329.05844116 1820.40102005 C-329.04740516 1804.53031485 -329.04513955 1788.65964389 -329.0533905 1772.78893661 C-329.05390719 1771.78353978 -329.05442388 1770.77814295 -329.05495623 1769.74227955 C-329.05708951 1765.64691736 -329.05928437 1761.5515552 -329.06155733 1757.45619308 C-329.08267463 1719.38065264 -329.08416721 1681.30513513 -329.07296753 1643.22959137 C-329.07263635 1642.10312201 -329.07230517 1640.97665266 -329.07196395 1639.81604787 C-329.07163223 1638.68775967 -329.07130051 1637.55947147 -329.07095874 1636.39699271 C-329.06085538 1601.98618869 -329.05826537 1567.57539413 -329.06304932 1533.16458893 C-329.06335924 1530.85790702 -329.06366786 1528.55122512 -329.0639752 1526.24454322 C-329.06521713 1516.97432547 -329.0664918 1507.70410773 -329.06781425 1498.43389 C-329.0714818 1472.52178114 -329.07376456 1446.60967226 -329.0749588 1420.69756317 C-329.07501338 1419.51770839 -329.07506797 1418.33785361 -329.0751242 1417.12224565 C-329.07676067 1379.54193216 -329.07225711 1341.96162197 -329.06356049 1304.38130951 C-329.06327949 1303.16290314 -329.06299849 1301.94449677 -329.06270898 1300.689169 C-329.0581295 1280.90458167 -329.05325151 1261.11999442 -329.04834829 1241.33540717 C-329.0289238 1162.87348018 -329.02982539 1084.4115805 -329.04927063 1005.94965363 C-329.05415562 986.17490898 -329.05899992 966.40016434 -329.06356049 946.62541962 C-329.06384228 945.4077218 -329.06412407 944.19002399 -329.0644144 942.93542625 C-329.07304256 905.39333905 -329.07669559 867.85125412 -329.0749588 830.30916595 C-329.07490446 829.13018385 -329.07485013 827.95120175 -329.07479414 826.73649291 C-329.07354408 800.85289539 -329.07100924 774.96929811 -329.06731679 749.08570082 C-329.06600029 739.823903 -329.06474796 730.56210518 -329.06351395 721.30030735 C-329.06320439 718.99633444 -329.06288947 716.69236153 -329.06256916 714.38838862 C-329.05779995 679.98914883 -329.06185052 645.58991972 -329.07196395 611.19068126 C-329.07229513 610.0642119 -329.07262631 608.93774255 -329.07296753 607.77713776 C-329.07329826 606.65275778 -329.07362899 605.5283778 -329.07396974 604.3699257 C-329.0850158 566.40144102 -329.08091746 528.43298381 -329.05984455 490.46450305 C-329.05763527 486.38226623 -329.05548843 482.30002939 -329.0533905 478.21779251 C-329.05286968 477.21598121 -329.05234885 476.21416992 -329.05181224 475.1820007 C-329.04394152 459.35828084 -329.04939548 443.53459529 -329.06046653 427.71087854 C-329.07108201 412.12863221 -329.06727112 396.54644342 -329.04841018 380.96420434 C-329.03779142 371.84502797 -329.03785986 362.7260099 -329.05433656 353.60684133 C-329.06420576 347.52890307 -329.05923854 341.4510865 -329.04286915 335.37316275 C-329.03402203 331.94164356 -329.0331242 328.51068729 -329.04613522 325.0791458 C-329.32793983 245.00254705 -299.63256578 167.04024349 -245.63716125 107.83148956 C-243.77103058 105.77183423 -241.95708837 103.67947562 -240.15278625 101.56586456 C-233.19897749 93.59560579 -225.53988259 86.38969266 -217.52778625 79.50336456 C-216.89751526 78.96107208 -216.26724426 78.4187796 -215.61787415 77.86005402 C-198.78161523 63.4896568 -180.92928251 51.14618009 -161.52778625 40.50336456 C-160.72325012 40.05396515 -159.91871399 39.60456573 -159.08979797 39.14154816 C-110.23648655 11.94078084 -55.60450497 -0.21082972 0 0 Z " fill="#000567" transform="translate(328.5277862548828,-0.5033645629882813)"/>
<path d="M0 0 C80.52 0 161.04 0 244 0 C241.74880059 10.13039734 241.74880059 10.13039734 240.37890625 14.59375 C240.08306641 15.56183594 239.78722656 16.52992188 239.48242188 17.52734375 C239.17884766 18.50832031 238.87527344 19.48929687 238.5625 20.5 C238.11293945 21.97146484 238.11293945 21.97146484 237.65429688 23.47265625 C236.29898222 27.88845368 234.91618837 32.29053867 233.44140625 36.66796875 C231.97663958 41.01911609 230.66858171 45.40796484 229.375 49.8125 C226.88058635 58.23114608 224.21290508 66.58696293 221.5 74.9375 C218.4903713 84.21061314 215.6487478 93.50506127 213.02954102 102.89550781 C211.28933808 109.10103373 209.29699111 115.17472025 207.2109375 121.2734375 C205.86253827 125.42302739 204.69931144 129.60120211 203.5625 133.8125 C201.69748059 140.71727531 199.54718121 147.47663699 197.23291016 154.24267578 C195.19553216 160.26059577 193.47740198 166.33520148 191.82202148 172.4675293 C190.54919561 177.14032071 189.13071253 181.72772579 187.5625 186.3125 C185.52776312 192.26410538 183.75729693 198.25581944 182.0625 204.3125 C179.97103707 211.77518942 177.68087312 219.13201096 175.18212891 226.4675293 C173.24164049 232.19165201 171.49797485 237.95670394 169.81958008 243.76245117 C168.29524145 249.0292872 166.67152797 254.25946158 165.01538086 259.48657227 C163.07886719 265.65038093 161.29099124 271.85510902 159.5 278.0625 C157.23511591 285.90748922 154.81978334 293.65359721 152.17578125 301.37890625 C150.83995172 305.49290617 149.6902158 309.63772284 148.5625 313.8125 C146.90431902 319.95104666 145.05778849 325.98371761 143 332 C140.9845738 337.89320826 139.17536776 343.79674201 137.5625 349.8125 C135.52548954 357.39387349 133.11298519 364.80971465 130.59057617 372.2421875 C128.49972948 378.42749018 126.57776914 384.64109115 124.76904297 390.9140625 C123.45061732 395.48489222 122.06215028 400.02707769 120.625 404.5625 C118.47004774 411.3637985 116.47775624 418.2078008 114.5 425.0625 C112.23511591 432.90748922 109.81978334 440.65359721 107.17578125 448.37890625 C105.83995172 452.49290617 104.6902158 456.63772284 103.5625 460.8125 C101.90431902 466.95104666 100.05778849 472.98371761 98 479 C95.9845738 484.89320826 94.17536776 490.79674201 92.5625 496.8125 C90.52548954 504.39387349 88.11298519 511.80971465 85.59057617 519.2421875 C83.49972948 525.42749018 81.57776914 531.64109115 79.76904297 537.9140625 C78.45061732 542.48489222 77.06215028 547.02707769 75.625 551.5625 C73.47004774 558.3637985 71.47775624 565.2078008 69.5 572.0625 C67.23511591 579.90748922 64.81978334 587.65359721 62.17578125 595.37890625 C60.59899133 600.23500012 59.28123792 605.14889114 57.95141602 610.07714844 C56.22025218 616.40508455 54.20220537 622.61353013 52.05493164 628.81176758 C51.81637451 629.5055249 51.57781738 630.19928223 51.33203125 630.9140625 C51.01842651 631.8105249 51.01842651 631.8105249 50.69848633 632.72509766 C49.65729535 636.11615587 48.84349277 639.55459599 48 643 C67.10874576 650.56261125 86.22615402 658.10193847 105.375 665.5625 C140.65497214 679.31035803 175.89407127 693.16365619 211.09716797 707.10717773 C225.38707277 712.76624213 239.69303222 718.38423438 254 724 C256.26351429 724.88857732 258.52702351 725.77716755 260.79052734 726.66577148 C261.89460434 727.09920868 262.99868134 727.53264587 264.13621521 727.97921753 C287.07828356 736.98598627 310.01943188 745.99479791 332.9375 755.0625 C334.26186066 755.5864888 334.26186066 755.5864888 335.61297607 756.12106323 C339.05077555 757.48130629 342.48855257 758.84160612 345.92630005 760.20198059 C353.51105115 763.20303425 361.09823481 766.19788111 368.6875 769.1875 C369.31708618 769.43551361 369.94667236 769.68352722 370.59533691 769.9390564 C383.72545649 775.11038051 396.86145542 780.26674874 409.99655151 785.42541504 C411.21456451 785.90377808 412.43257751 786.38214111 413.6875 786.875 C414.90511017 787.3532019 416.12272034 787.83140381 417.37722778 788.32409668 C438.26068459 796.52630044 459.13322043 804.75543325 480 813 C492.54 817.95 505.08 822.9 518 828 C518 886.41 518 944.82 518 1005 C504.50340136 1010.62358277 504.50340136 1010.62358277 499.13671875 1012.69140625 C497.33835571 1013.38580811 497.33835571 1013.38580811 495.50366211 1014.09423828 C494.88377411 1014.33273499 494.26388611 1014.57123169 493.62521362 1014.81695557 C491.60966586 1015.59244705 489.5949157 1016.36998215 487.58032227 1017.14794922 C484.75892153 1018.23725802 481.93722867 1019.325804 479.11523438 1020.41357422 C472.88800116 1022.81396427 466.66218737 1025.21801568 460.4375 1027.625 C459.82135834 1027.86319458 459.20521667 1028.10138916 458.57040405 1028.34680176 C447.19045476 1032.74780044 435.8292619 1037.1962367 424.46936035 1041.64868164 C408.26625268 1047.9993673 392.04906145 1054.30964176 375.79956055 1060.54067993 C363.3487152 1065.31574273 350.91896591 1070.14265459 338.5 1075 C324.97354932 1080.28999595 311.43370664 1085.5432142 297.875 1090.75 C297.06061462 1091.06276886 296.24622925 1091.37553772 295.40716553 1091.69778442 C292.19657519 1092.93077234 288.98596031 1094.16369635 285.77529907 1095.39649963 C265.61403371 1103.13958277 245.48984375 1110.97696569 225.37457275 1118.83859253 C211.96180721 1124.07931005 198.52996916 1129.26841606 185.08520508 1134.42642212 C172.53955379 1139.24055784 160.01450534 1144.10550369 147.5 1149 C133.97352726 1154.28994021 120.43370706 1159.54321404 106.875 1164.75 C106.06061462 1165.06276886 105.24622925 1165.37553772 104.40716553 1165.69778442 C101.19657519 1166.93077234 97.98596031 1168.16369635 94.77529907 1169.39649963 C74.61403371 1177.13958277 54.48984375 1184.97696569 34.37457275 1192.83859253 C20.96349285 1198.07865143 7.53346979 1203.26745016 -5.90975952 1208.42440796 C-18.56202615 1213.27894748 -31.1922084 1218.18797383 -43.8125 1223.125 C-56.39852989 1228.04820652 -68.99725658 1232.93474299 -81.625 1237.75 C-92.04547733 1241.72420219 -102.4631999 1245.70496008 -112.86639404 1249.72424316 C-114.17578118 1250.22995013 -115.48538208 1250.7351041 -116.79522705 1251.23962402 C-119.75680683 1252.38062981 -122.71361809 1253.53108411 -125.66308594 1254.703125 C-127.90354477 1255.57386815 -130.16326784 1256.39645595 -132.43847656 1257.171875 C-137.99716273 1258.98943616 -137.99716273 1258.98943616 -142.29101562 1262.70507812 C-143.1052956 1264.79499253 -143.5618528 1266.80082004 -144 1269 C-144.53634099 1270.75407118 -145.08673677 1272.50388441 -145.6484375 1274.25 C-146.22645127 1276.16591634 -146.80187486 1278.0826156 -147.375 1280 C-147.99687652 1282.06395863 -148.6192737 1284.12776045 -149.2421875 1286.19140625 C-149.54350586 1287.19059082 -149.84482422 1288.18977539 -150.15527344 1289.21923828 C-151.24328545 1292.80087319 -152.36920782 1296.36913925 -153.5 1299.9375 C-155.60214803 1306.61735198 -157.55758008 1313.33462599 -159.5 1320.0625 C-161.76503497 1327.90744801 -164.18021419 1335.65358998 -166.82421875 1343.37890625 C-168.16004828 1347.49290617 -169.3097842 1351.63772284 -170.4375 1355.8125 C-172.09568098 1361.95104666 -173.94221151 1367.98371761 -176 1374 C-178.0154262 1379.89320826 -179.82463224 1385.79674201 -181.4375 1391.8125 C-183.47451046 1399.39387349 -185.88701481 1406.80971465 -188.40942383 1414.2421875 C-190.49952292 1420.42527858 -192.42149523 1426.63648933 -194.22875977 1432.9074707 C-195.56567137 1437.54418051 -196.97646239 1442.15099303 -198.4375 1446.75 C-200.3956082 1452.92509742 -202.18593963 1459.13842641 -203.9375 1465.375 C-206.00521792 1472.72305559 -208.27618604 1479.96310795 -210.74755859 1487.18432617 C-213.0067179 1493.85496193 -214.92072894 1500.60700575 -216.81811523 1507.38793945 C-218.61436566 1513.76642531 -220.64837697 1520.01477838 -222.79296875 1526.28515625 C-224.11987353 1530.36893116 -225.25998636 1534.47965613 -226.375 1538.625 C-228.43624134 1546.26735975 -230.86582639 1553.74730478 -233.40917969 1561.24145508 C-235.49913731 1567.42415141 -237.41986878 1573.63523157 -239.22875977 1579.90527344 C-240.57225945 1584.56097631 -241.97868346 1589.19166548 -243.4375 1593.8125 C-245.3174224 1599.77805132 -247.14372441 1605.75797683 -248.9375 1611.75 C-249.18516113 1612.5764502 -249.43282227 1613.40290039 -249.68798828 1614.25439453 C-251.02681654 1618.72837703 -252.35679431 1623.20487385 -253.6796875 1627.68359375 C-253.95304932 1628.60495117 -254.22641113 1629.52630859 -254.50805664 1630.47558594 C-255.03600265 1632.25538086 -255.56131915 1634.03595833 -256.08374023 1635.81738281 C-257.88743849 1641.88743849 -257.88743849 1641.88743849 -259 1643 C-262.12239193 1643.09805942 -265.22268141 1643.12990476 -268.34547424 1643.12025452 C-269.33863189 1643.12110894 -270.33178954 1643.12196337 -271.35504287 1643.12284368 C-274.71010181 1643.12450149 -278.06511163 1643.11897221 -281.42016602 1643.11352539 C-283.81437173 1643.11324356 -286.20857754 1643.11340118 -288.6027832 1643.1139679 C-293.77130681 1643.11419621 -298.93981914 1643.11134489 -304.10833931 1643.10573006 C-311.58123288 1643.09761712 -319.05412033 1643.09500005 -326.52701782 1643.09374207 C-338.65009541 1643.09155122 -350.77316629 1643.08489025 -362.89624023 1643.07543945 C-374.67553677 1643.06626618 -386.45483148 1643.05918493 -398.23413086 1643.05493164 C-398.95970806 1643.05466892 -399.68528526 1643.05440619 -400.43284965 1643.05413551 C-404.07270832 1643.05283051 -407.712567 1643.05156679 -411.35242569 1643.05032361 C-441.5682886 1643.03994998 -471.78414337 1643.02225666 -502 1643 C-500.436576 1631.77107933 -497.2255933 1621.2704739 -493.5625 1610.5625 C-490.9214071 1602.79064989 -488.35089316 1595.01575451 -486.00756836 1587.14819336 C-485.24975315 1584.78036513 -484.44100307 1582.48577458 -483.5546875 1580.16674805 C-481.92915773 1575.8896278 -480.55846911 1571.55466755 -479.22265625 1567.1796875 C-478.97003525 1566.35856476 -478.71741425 1565.53744202 -478.45713806 1564.69143677 C-477.92573544 1562.96229506 -477.39552505 1561.23278655 -476.86645508 1559.50292969 C-476.07078745 1556.90208961 -475.27106745 1554.30252309 -474.47070312 1551.703125 C-471.85349933 1543.18367997 -469.31098556 1534.65183858 -466.88745117 1526.07519531 C-465.56607784 1521.49637318 -464.10107644 1516.96831213 -462.625 1512.4375 C-460.25170373 1505.07830328 -458.02089883 1497.69632387 -455.9375 1490.25 C-453.9144516 1483.0247315 -451.68113657 1475.91227668 -449.25195312 1468.81420898 C-446.99219152 1462.14186457 -445.07837761 1455.38790302 -443.1796875 1448.60546875 C-441.40461052 1442.30441017 -439.40032864 1436.13172987 -437.28125 1429.9375 C-435.39364761 1424.27469284 -433.84436605 1418.51022006 -432.23266602 1412.7644043 C-430.41774878 1406.34019195 -428.37153031 1400.04320007 -426.2109375 1393.7265625 C-424.86253642 1389.57696693 -423.69939213 1385.39877927 -422.5625 1381.1875 C-420.92061765 1375.11292347 -419.09969175 1369.14105133 -417.0625 1363.1875 C-414.50977875 1355.7263308 -412.30537829 1348.19903909 -410.17993164 1340.60620117 C-408.74652943 1335.51825632 -407.21088912 1330.50148096 -405.5 1325.5 C-403.16653903 1318.67163505 -401.18511007 1311.76830979 -399.22827148 1304.82373047 C-397.56143496 1298.9229053 -395.80917697 1293.06248439 -393.95825195 1287.21655273 C-392.15935382 1281.53192171 -390.41830011 1275.83071197 -388.6875 1270.125 C-386.14342393 1261.74426792 -383.57959986 1253.36986583 -381 1245 C-378.48482748 1236.83789451 -375.98225617 1228.67217672 -373.5 1220.5 C-370.68233836 1211.22358886 -367.83544175 1201.95639524 -364.98046875 1192.69140625 C-362.80634755 1185.63180806 -360.64684897 1178.56793655 -358.5 1171.5 C-355.68233836 1162.22358886 -352.83544175 1152.95639524 -349.98046875 1143.69140625 C-347.80634755 1136.63180806 -345.64684897 1129.56793655 -343.5 1122.5 C-340.68233836 1113.22358886 -337.83544175 1103.95639524 -334.98046875 1094.69140625 C-332.80634745 1087.63180774 -330.64691985 1080.56791519 -328.5 1073.5 C-323.07449628 1055.6437739 -317.59406635 1037.80419195 -312 1020 C-313.2271875 1019.60167969 -314.454375 1019.20335937 -315.71875 1018.79296875 C-321.70738745 1016.7940398 -327.60064892 1014.55912371 -333.5 1012.3125 C-334.10937408 1012.08101257 -334.71874817 1011.84952515 -335.34658813 1011.61102295 C-347.87726546 1006.84925759 -360.36189848 1001.97018326 -372.84487915 997.08505249 C-384.44016154 992.54757188 -396.04990933 988.05279026 -407.6875 983.625 C-420.84254639 978.61770937 -433.95804016 973.5131378 -447.0625 968.375 C-462.96856397 962.13915067 -478.88255843 955.92462564 -494.8125 949.75 C-496.3150383 949.16759552 -496.3150383 949.16759552 -497.84793091 948.57342529 C-515.9362271 941.56392401 -534.03447639 934.58022387 -552.13345337 927.59835815 C-573.76643653 919.25306095 -595.38832496 910.87946578 -617.00422668 902.49003601 C-624.10974047 899.73257113 -631.21671106 896.97888336 -638.32421875 894.2265625 C-641.45013591 893.01571224 -644.57602541 891.8047906 -647.7019043 890.59384155 C-649.59991231 889.85873012 -651.49801369 889.12385969 -653.39624023 888.38931274 C-675.95669888 879.65877086 -698.47223707 870.81521158 -721 862 C-721 803.26 -721 744.52 -721 684 C-708.13 679.05 -695.26 674.1 -682 669 C-673.92229058 665.78985198 -665.84770614 662.57835072 -657.78735352 659.32592773 C-641.07478742 652.58504794 -624.34114989 645.913187 -607.5 639.5 C-591.59670359 633.44371314 -575.79273359 627.15112063 -560 620.8125 C-544.74168348 614.68917489 -529.48351838 608.57951917 -514.13574219 602.68359375 C-500.98160279 597.62512913 -487.86642562 592.46784101 -474.75 587.3125 C-473.52983185 586.83296875 -472.3096637 586.3534375 -471.05252075 585.859375 C-454.67863446 579.42319968 -438.31238106 572.96796309 -421.95413208 566.49215698 C-404.99123778 559.77745483 -388.01144633 553.10604074 -371.02978516 546.43896484 C-356.68137959 540.80560158 -342.3355535 535.16599197 -328 529.5 C-311.114817 522.82642535 -294.21543764 516.1891521 -277.31542969 509.55322266 C-262.87188745 503.88158403 -248.43103155 498.2033978 -234 492.5 C-218.54591305 486.39277153 -203.0822959 480.30985733 -187.6161499 474.23324585 C-185.7816618 473.51244053 -183.94722692 472.79149977 -182.11279297 472.07055664 C-175.4090371 469.43611597 -168.70405114 466.8048467 -161.99780273 464.17675781 C-159.13052106 463.05123475 -156.26524639 461.92074337 -153.40039062 460.7890625 C-151.75134108 460.14052582 -150.10225527 459.49208137 -148.453125 458.84375 C-147.71390808 458.55012573 -146.97469116 458.25650146 -146.21307373 457.95397949 C-141.22691687 456 -141.22691687 456 -139 456 C-138.84144531 455.319375 -138.68289063 454.63875 -138.51953125 453.9375 C-135.95666148 443.28955487 -132.59967096 432.91521445 -129.21484375 422.5078125 C-125.20767608 410.14646109 -121.43837014 397.73763636 -117.86398315 385.24563599 C-115.27300285 376.20426496 -112.49681222 367.25591433 -109.45068359 358.35742188 C-107.17880187 351.67495144 -105.22776133 344.92935202 -103.33251953 338.13183594 C-101.44208856 331.40838034 -99.34940578 324.76566622 -97.1875 318.125 C-94.07443997 308.55327807 -91.20512722 298.92566478 -88.4375 289.25 C-85.65956063 279.53947522 -82.7221615 269.91421513 -79.45068359 260.35742188 C-77.17880187 253.67495144 -75.22776133 246.92935202 -73.33251953 240.13183594 C-71.44208856 233.40838034 -69.34940578 226.76566622 -67.1875 220.125 C-64.07443997 210.55327807 -61.20512722 200.92566478 -58.4375 191.25 C-55.65956063 181.53947522 -52.7221615 171.91421513 -49.45068359 162.35742188 C-47.17880187 155.67495144 -45.22776133 148.92935202 -43.33251953 142.13183594 C-41.44208856 135.40838034 -39.34940578 128.76566622 -37.1875 122.125 C-34.07443997 112.55327807 -31.20512722 102.92566478 -28.4375 93.25 C-25.65956063 83.53947522 -22.7221615 73.91421513 -19.45068359 64.35742188 C-17.18374488 57.68949071 -15.23455877 50.95919198 -13.34570312 44.17578125 C-11.04266469 35.97769748 -8.4496396 27.88104429 -5.80297852 19.78808594 C-5.48256592 18.80356445 -5.16215332 17.81904297 -4.83203125 16.8046875 C-4.55077393 15.94858887 -4.2695166 15.09249023 -3.97973633 14.21044922 C-2.54394759 9.50558454 -1.2942927 4.74573991 0 0 Z " fill="#FBCB0C" transform="translate(1235,274)"/>
<path d="M0 0 C53.40631818 19.79663789 106.23374308 41.21794136 159.171875 62.2265625 C180.16772038 70.55741922 201.16683979 78.87554368 222.22875977 87.03808594 C237.57143451 92.98581485 252.87241697 99.03838006 268.17382812 105.09130859 C275.53455422 108.0028274 282.89713321 110.90965327 290.25982666 113.81619263 C292.49347506 114.6980719 294.72697692 115.58032131 296.96044922 116.46264648 C310.96619751 121.99400873 324.98336164 127.49630573 339 133 C341.29215604 133.90006233 343.58431101 134.80012738 345.87646484 135.70019531 C346.99555237 136.13962967 348.11463989 136.57906403 349.26763916 137.03181458 C377.18857183 147.99571171 405.10217061 158.97743105 433 170 C445.54 174.95 458.08 179.9 471 185 C471 243.41 471 301.82 471 362 C457.50340136 367.62358277 457.50340136 367.62358277 452.13671875 369.69140625 C450.93781006 370.15434082 449.73890137 370.61727539 448.50366211 371.09423828 C447.88377411 371.33273499 447.26388611 371.57123169 446.62521362 371.81695557 C444.60966586 372.59244705 442.5949157 373.36998215 440.58032227 374.14794922 C437.75892153 375.23725802 434.93722867 376.325804 432.11523438 377.41357422 C425.88800116 379.81396427 419.66218737 382.21801568 413.4375 384.625 C412.51328751 384.98229187 412.51328751 384.98229187 411.57040405 385.34680176 C400.19045476 389.74780044 388.8292619 394.1962367 377.46936035 398.64868164 C361.26625268 404.9993673 345.04906145 411.30964176 328.79956055 417.54067993 C316.3487152 422.31574273 303.91896591 427.14265459 291.5 432 C277.97354932 437.28999595 264.43370664 442.5432142 250.875 447.75 C250.06061462 448.06276886 249.24622925 448.37553772 248.40716553 448.69778442 C245.19657519 449.93077234 241.98596031 451.16369635 238.77529907 452.39649963 C218.61403371 460.13958277 198.48984375 467.97696569 178.37457275 475.83859253 C164.96180721 481.07931005 151.52996916 486.26841606 138.08520508 491.42642212 C125.53955379 496.24055784 113.01450534 501.10550369 100.5 506 C86.97352726 511.28994021 73.43370706 516.54321404 59.875 521.75 C59.06061462 522.06276886 58.24622925 522.37553772 57.40716553 522.69778442 C54.19657519 523.93077234 50.98596031 525.16369635 47.77529907 526.39649963 C27.61403371 534.13958277 7.48984375 541.97696569 -12.62542725 549.83859253 C-26.03650715 555.07865143 -39.46653021 560.26745016 -52.90975952 565.42440796 C-65.56202615 570.27894748 -78.1922084 575.18797383 -90.8125 580.125 C-104.77407899 585.58627233 -118.75673328 590.98778823 -132.76489258 596.32836914 C-142.51977203 600.04780329 -152.26396925 603.79399806 -162 607.5625 C-162.64221497 607.81084595 -163.28442993 608.05919189 -163.94610596 608.31506348 C-170.691953 610.92425879 -177.42587309 613.55050357 -184.109375 616.31616211 C-186 617 -186 617 -188 617 C-187.39255478 611.90692439 -186.29053848 607.16818053 -184.75708008 602.26977539 C-184.52847007 601.52459939 -184.29986006 600.77942339 -184.06432247 600.0116663 C-183.30433653 597.53877641 -182.5369257 595.06825617 -181.76953125 592.59765625 C-181.22520875 590.83143618 -180.68137664 589.06506491 -180.13800049 587.29855347 C-178.97554198 583.52279998 -177.80987682 579.74805774 -176.64163208 575.97409058 C-174.79883443 570.02084772 -172.96304948 564.06545807 -171.12866211 558.10961914 C-169.25329907 552.0216055 -167.3776526 545.93368104 -165.49964905 539.84648132 C-160.11494965 522.39131733 -154.77019073 504.92413072 -149.44015503 487.45220947 C-148.0754918 482.97927523 -146.70901256 478.50689724 -145.34204102 474.03466797 C-144.90254186 472.59671028 -144.46304296 471.15875252 -144.02354431 469.72079468 C-143.81000746 469.02214672 -143.5964706 468.32349876 -143.37646294 467.60367966 C-140.56676337 458.4106765 -137.76003665 449.21679523 -134.96556091 440.01914978 C-133.818275 436.24526734 -132.66744264 432.47247385 -131.51559448 428.69998169 C-131.01421814 427.05459513 -130.51457868 425.40867808 -130.01687622 423.76217651 C-129.36459166 421.60440879 -128.70653382 419.44849118 -128.046875 417.29296875 C-127.69463867 416.1330542 -127.34240234 414.97313965 -126.97949219 413.77807617 C-126 411 -126 411 -124 408 C-121.53125 406.97265625 -121.53125 406.97265625 -118.5 406.0625 C-113.84041261 404.64623067 -109.37344592 402.96744308 -104.86523438 401.13989258 C-99.28538081 398.92002752 -93.63916522 396.87586616 -88 394.8125 C-87.34926514 394.57389252 -86.69853027 394.33528503 -86.02807617 394.08944702 C-75.81961648 390.34915011 -65.57173869 386.73709612 -55.28710938 383.2109375 C-47.41828767 380.50861207 -39.59914549 377.68632112 -31.79003906 374.81665039 C-25.2300566 372.41740874 -18.62639017 370.18375097 -11.98901367 368.00927734 C-7.42975273 366.50626982 -2.98402934 364.84136627 1.44921875 362.99609375 C4.75830576 361.70387754 8.12453552 360.60309297 11.5 359.5 C16.50004122 357.86438597 21.39311371 356.08373518 26.2578125 354.08203125 C30.43619622 352.43329579 34.67962182 350.97289676 38.91967773 349.49243164 C44.94646635 347.38393607 50.94300201 345.19839975 56.9375 343 C64.58611158 340.1988754 72.26853524 337.5457544 80.00878906 335.01000977 C84.56878561 333.50674263 89.01524872 331.84166677 93.44921875 329.99609375 C97.40404922 328.45171125 101.44572914 327.17124757 105.47998047 325.85302734 C108.97859328 324.70092683 112.41221919 323.4778155 115.8125 322.0625 C120.42586163 320.15246046 125.13125187 318.60977722 129.875 317.0625 C136.10313208 315.02928077 142.12073993 312.75677165 148.13671875 310.15234375 C152.31832285 308.46943351 156.61139001 307.23822826 160.9296875 305.95703125 C164.39011698 304.87839865 167.69106183 303.56547936 171.03491211 302.17456055 C174.57289086 300.77306069 178.15386877 299.51125016 181.74609375 298.2578125 C187.69046922 296.17159224 193.62660596 294.06480943 199.55078125 291.921875 C200.2608432 291.66503433 200.97090515 291.40819366 201.70248413 291.14356995 C203.15959242 290.6161922 204.61663324 290.08862802 206.0736084 289.56088257 C222.36571957 283.66019986 238.67587298 277.81153276 255 272 C252.66658763 269.66658763 250.99671338 269.14382454 247.88671875 268.06640625 C246.20872192 267.4787146 246.20872192 267.4787146 244.49682617 266.87915039 C243.57430557 266.56036423 243.57430557 266.56036423 242.63314819 266.23513794 C239.15742211 265.03353056 235.68872659 263.81183888 232.21875 262.59375 C231.04828377 262.18377525 231.04828377 262.18377525 229.85417175 261.76551819 C219.59807371 258.16799631 209.37398474 254.48095047 199.14575195 250.80514526 C181.14866892 244.33829719 163.14333543 237.89689856 145.09838867 231.56469727 C139.04047995 229.43686226 133.00215952 227.28018547 127 225 C117.54028671 221.46300888 108.08131132 217.96270108 98.48046875 214.82421875 C95.69474348 213.89856831 92.95616903 212.88034992 90.21484375 211.83203125 C87.38478607 210.76888789 84.53654453 209.76116378 81.6875 208.75 C75.89897961 206.69199758 70.13486194 204.57424135 64.375 202.4375 C58.11176344 200.11658631 51.83008462 197.89988628 45.48046875 195.82421875 C42.70142416 194.90078819 39.96928666 193.88521288 37.234375 192.83984375 C31.85135293 190.81650503 26.41772759 188.92795586 21 187 C18.72910625 186.18766887 16.45827249 185.37517002 14.1875 184.5625 C10.33493765 183.18565415 6.48024816 181.81527172 2.62109375 180.45703125 C1.87384033 180.19398193 1.12658691 179.93093262 0.35668945 179.65991211 C-1.08330768 179.15344774 -2.52355653 178.64769825 -3.96411133 178.14282227 C-9.93000085 176.04502964 -15.84463 173.82183329 -21.75390625 171.5703125 C-30.76493575 168.14434156 -39.83047193 164.9774617 -49 162 C-47.56797494 155.11822566 -45.71370643 148.46014638 -43.640625 141.74609375 C-43.30358047 140.64444885 -42.96653595 139.54280396 -42.61927795 138.40777588 C-41.49940333 134.75002239 -40.37470855 131.09376974 -39.25 127.4375 C-38.45655288 124.85088856 -37.66415552 122.26395598 -36.87182617 119.67700195 C-35.60658597 115.546802 -34.34093791 111.4167286 -33.07365417 107.28715515 C-30.00578225 97.289528 -26.9495034 87.28840713 -23.89977646 77.28523064 C-22.42701473 72.45476861 -20.9534461 67.62455265 -19.48003197 62.79428959 C-18.28780854 58.88568671 -17.09588805 54.97699203 -15.90466309 51.06808472 C-10.70617485 34.01195347 -5.46714995 16.9724912 0 0 Z " fill="#FEFEFE" transform="translate(1282,917)"/>
<path d="M0 0 C-2.22961544 9.74765757 -5.17409492 19.2294786 -8.1791687 28.75964355 C-9.74527627 33.72898484 -11.29831883 38.70240685 -12.8515625 43.67578125 C-13.18407516 44.74001312 -13.51658783 45.804245 -13.85917664 46.90072632 C-17.94517046 59.99882038 -21.94089307 73.12441481 -25.9375 86.25 C-26.70530485 88.7705945 -27.47312713 91.29118368 -28.2409668 93.81176758 C-29.38550637 97.56922859 -30.52996837 101.32671313 -31.67417908 105.08427429 C-34.13098242 113.15136343 -36.59239578 121.21702807 -39.05859375 129.28125 C-39.37977676 130.33220352 -39.70095978 131.38315704 -40.03187561 132.46595764 C-41.58898712 137.55825352 -43.1513578 142.64882532 -44.72485352 147.73608398 C-47.39230127 156.37384306 -50.02877122 165.01293521 -52.47750854 173.71566772 C-53.51353925 177.39029795 -54.57440823 181.05754079 -55.63726807 184.7244873 C-56.1223217 186.4260877 -56.59452739 188.13141249 -57.05267334 189.8404541 C-60.46983581 202.58089127 -60.46983581 202.58089127 -63.86694336 205.73144531 C-66.22679932 206.83410559 -68.46387384 207.40763206 -71 208 C-73.15972026 208.79535326 -75.31153558 209.61234988 -77.45703125 210.4453125 C-79.907634 211.34210743 -82.35930477 212.23537932 -84.8125 213.125 C-86.16078168 213.61638346 -87.50900644 214.10792314 -88.85717773 214.59960938 C-99.39107763 218.43625092 -109.94618709 222.21308293 -120.5078125 225.97265625 C-131.65779935 229.94204021 -142.79674942 233.94228715 -153.9375 237.9375 C-156.23355588 238.76075701 -158.52961713 239.58399907 -160.82568359 240.40722656 C-170.18798156 243.76405059 -179.55012046 247.12131805 -188.91210938 250.47900391 C-195.6704904 252.9028994 -202.42895368 255.32656542 -209.1875 257.75 C-210.28677826 258.14418121 -211.38605652 258.53836243 -212.51864624 258.94448853 C-229.19654176 264.9244237 -245.87876984 270.89212578 -262.56713867 276.84277344 C-272.44323527 280.36544608 -282.31123636 283.91013888 -292.17590332 287.46469116 C-299.97301034 290.27311627 -307.77451051 293.06908743 -315.578125 295.859375 C-317.85286998 296.67316199 -320.12760956 297.48696409 -322.40234375 298.30078125 C-325.85080317 299.53445268 -329.29942766 300.76765323 -332.74853516 301.99951172 C-350.44937498 308.29796359 -350.44937498 308.29796359 -368 315 C-366.9162207 315.38631592 -365.83244141 315.77263184 -364.71582031 316.1706543 C-359.56022461 318.00869986 -354.40503158 319.84787294 -349.25 321.6875 C-348.30695007 322.02402588 -347.36390015 322.36055176 -346.39227295 322.70727539 C-332.36470513 327.71425736 -318.34976529 332.75501036 -304.34503174 337.82546997 C-295.36884211 341.07447172 -286.38148612 344.28467503 -277.36108398 347.40917969 C-269.45984346 350.16049703 -261.61515103 353.06534607 -253.76504517 355.95852661 C-243.32330983 359.80508237 -232.84930308 363.5519456 -222.35513306 367.2527771 C-213.32937533 370.43779954 -204.3398888 373.70930134 -195.375 377.0625 C-184.93969461 380.96334034 -174.43777302 384.63212731 -163.89477539 388.23046875 C-155.15574397 391.22542183 -146.47310804 394.34954423 -137.8125 397.5625 C-136.65363281 397.99240234 -135.49476563 398.42230469 -134.30078125 398.86523438 C-126.29240804 401.85379598 -126.29240804 401.85379598 -124 403 C-124.65153353 409.03520365 -126.25368666 414.55511233 -128.0703125 420.3359375 C-128.38302094 421.34620499 -128.69572937 422.35647247 -129.01791382 423.39735413 C-129.69441951 425.58072238 -130.37334935 427.76334069 -131.05444336 429.94528198 C-132.14326011 433.43349951 -133.22578964 436.92361321 -134.30664062 440.41430664 C-135.80441354 445.25059243 -137.30429417 450.08621643 -138.80566406 454.92138672 C-142.06272253 465.41890648 -145.28383647 475.92739243 -148.5 486.4375 C-148.79973724 487.41627106 -149.09947449 488.39504211 -149.40829468 489.4034729 C-157.01461211 514.24601912 -164.51033752 539.12208186 -172 564 C-177.40328399 563.3773127 -181.94326563 561.57152118 -186.91796875 559.50390625 C-188.71488996 558.77121307 -190.51227199 558.03964924 -192.31005859 557.30908203 C-193.2447699 556.92810364 -194.1794812 556.54712524 -195.14251709 556.15460205 C-199.84448184 554.25471382 -204.57184584 552.42134968 -209.30078125 550.58984375 C-210.74723778 550.02892784 -210.74723778 550.02892784 -212.22291565 549.4566803 C-215.25238622 548.28260828 -218.28242568 547.11001286 -221.3125 545.9375 C-223.47829044 545.0984376 -225.6440616 544.25932542 -227.80981445 543.42016602 C-241.54460685 538.10056622 -255.29066773 532.81078381 -269.04196167 527.5340271 C-282.17399114 522.49270588 -295.27872941 517.38343258 -308.375 512.25 C-343.24867073 498.5810572 -378.18678427 485.07939363 -413.13345337 471.59835815 C-434.76643653 463.25306095 -456.38832496 454.87946578 -478.00422668 446.49003601 C-485.10974047 443.73257113 -492.21671106 440.97888336 -499.32421875 438.2265625 C-502.45013591 437.01571224 -505.57602541 435.8047906 -508.7019043 434.59384155 C-510.59991231 433.85873012 -512.49801369 433.12385969 -514.39624023 432.38931274 C-536.95669888 423.65877086 -559.47223707 414.81521158 -582 406 C-582 347.26 -582 288.52 -582 228 C-569.13 223.05 -556.26 218.1 -543 213 C-534.92229058 209.78985198 -526.84770614 206.57835072 -518.78735352 203.32592773 C-502.07478742 196.58504794 -485.34114989 189.913187 -468.5 183.5 C-452.59670359 177.44371314 -436.79273359 171.15112063 -421 164.8125 C-405.74168348 158.68917489 -390.48351838 152.57951917 -375.13574219 146.68359375 C-361.98160279 141.62512913 -348.86642562 136.46784101 -335.75 131.3125 C-334.52983185 130.83296875 -333.3096637 130.3534375 -332.05252075 129.859375 C-315.67863446 123.42319968 -299.31238106 116.96796309 -282.95413208 110.49215698 C-265.99123778 103.77745483 -249.01144633 97.10604074 -232.02978516 90.43896484 C-217.68137959 84.80560158 -203.3355535 79.16599197 -189 73.5 C-172.114817 66.82642535 -155.21543764 60.1891521 -138.31542969 53.55322266 C-123.87188745 47.88158403 -109.43103155 42.2033978 -95 36.5 C-79.54591305 30.39277153 -64.0822959 24.30985733 -48.6161499 18.23324585 C-46.7816618 17.51244053 -44.94722692 16.79149977 -43.11279297 16.07055664 C-36.4090371 13.43611597 -29.70405114 10.8048467 -22.99780273 8.17675781 C-20.13052106 7.05123475 -17.26524639 5.92074337 -14.40039062 4.7890625 C-12.75134108 4.14052582 -11.10225527 3.49208137 -9.453125 2.84375 C-8.34429962 2.4033136 -8.34429962 2.4033136 -7.21307373 1.95397949 C-2.22691687 0 -2.22691687 0 0 0 Z " fill="#FEFEFE" transform="translate(1096,730)"/>
<path d="M0 0 C5.56422244 0.61169598 10.52905433 1.99150931 15.8125 3.8125 C17.01314087 4.21952148 17.01314087 4.21952148 18.23803711 4.63476562 C22.99607992 6.26316601 27.67805992 8.01163106 32.32421875 9.9375 C40.8932628 13.34009851 49.67861541 16.25434621 58.4375 19.125 C61.89190652 20.26248339 65.26544892 21.48326746 68.625 22.875 C73.34531324 24.81506402 78.15351136 26.41088193 83 28 C88.57046408 29.82657689 94.03479176 31.75023284 99.44921875 34.00390625 C102.75829899 35.29611982 106.12449885 36.39703107 109.5 37.5 C113.65819587 38.85871998 117.77168126 40.25557027 121.8125 41.9375 C126.46759546 43.86347752 131.21598146 45.43129374 136 47 C141.57046038 48.82658491 147.03479164 50.75023279 152.44921875 53.00390625 C155.75830576 54.29612246 159.12453552 55.39690703 162.5 56.5 C166.67477624 57.86565326 170.81070391 59.26600622 174.875 60.9375 C179.05833203 62.65723845 183.29431759 64.19388576 187.5625 65.6875 C202.42500415 70.89383619 217.23363731 76.24820607 232.01953125 81.66796875 C232.90462372 81.99230392 233.78971619 82.3166391 234.70162964 82.65080261 C239.1124647 84.26747221 243.52259918 85.88601358 247.93164062 87.50756836 C258.8635206 91.5221372 269.83316646 95.41534603 280.83151245 99.24377441 C285.60499994 100.90845235 290.3679481 102.60150718 295.125 104.3125 C296.06730469 104.64572266 297.00960938 104.97894531 297.98046875 105.32226562 C298.87636719 105.64517578 299.77226563 105.96808594 300.6953125 106.30078125 C301.47922363 106.58091064 302.26313477 106.86104004 303.07080078 107.1496582 C305 108 305 108 307 110 C302.70386428 111.58534983 298.40704397 113.16881116 294.109375 114.75 C289.76372393 116.34906155 285.42055848 117.95472298 281.078125 119.5625 C266.93657837 124.78623333 252.75951252 129.87300685 238.49072266 134.73950195 C232.62356819 136.74086749 226.78928914 138.78335239 221 141 C211.89154094 144.47283821 202.77263457 147.8126823 193.5 150.82421875 C188.5247653 152.49558666 183.63653997 154.37086308 178.73828125 156.25390625 C168.30988788 160.23738604 157.76712819 163.87640678 147.2043457 167.48461914 C139.99408729 169.95119745 132.85100498 172.51955377 125.73828125 175.25390625 C115.30988788 179.23738604 104.76712819 182.87640678 94.2043457 186.48461914 C86.10107865 189.25668938 78.09243796 192.17086796 70.125 195.3125 C63.96065845 197.69336004 57.72578545 199.80805316 51.44384766 201.85668945 C45.46840187 203.81084341 39.60551033 205.9983607 33.73828125 208.25390625 C25.01258874 211.5869815 16.21329826 214.66608588 7.375 217.6875 C-3.55890602 221.42701683 -14.4272798 225.31629339 -25.26556396 229.32409668 C-34.62901694 232.78568709 -44.0201182 236.14588525 -53.47021484 239.36376953 C-58.64651168 241.1362858 -63.72811747 243.05530804 -68.78222656 245.15258789 C-70.8421523 245.93968633 -72.8509538 246.51667914 -75 247 C-73.44525815 240.04457594 -71.49206362 233.29942877 -69.1875 226.5625 C-66.96988987 220.06836476 -64.96840961 213.54742234 -63.125 206.9375 C-60.98300226 199.27307602 -58.65087435 191.6920671 -56.1875 184.125 C-53.07445628 174.55327216 -50.20512742 164.92566545 -47.4375 155.25 C-44.65956063 145.53947522 -41.7221615 135.91421513 -38.45068359 126.35742188 C-36.18127317 119.68222047 -34.23116862 112.94427003 -32.33911133 106.15380859 C-30.38870181 99.21402418 -28.22557884 92.35604111 -26 85.5 C-23.19731453 76.86571787 -20.59007372 68.20357043 -18.1484375 59.4609375 C-16.3769087 53.17393584 -14.36669184 46.99721587 -12.25390625 40.81787109 C-9.69511064 33.25703198 -7.54944652 25.58886067 -5.390625 17.90625 C-3.70147948 11.90350147 -1.8757151 5.94712024 0 0 Z " fill="#000362" transform="translate(1232,1079)"/>
<path d="M0 0 C-0.64460401 4.53995295 -1.77138905 8.70417794 -3.1875 13.0625 C-5.24127335 19.46459687 -7.12419635 25.90094859 -8.9375 32.375 C-11.02511382 39.79926989 -13.32635516 47.1124005 -15.82226562 54.40844727 C-17.54671005 59.50017335 -19.04462229 64.62102053 -20.4375 69.8125 C-22.47466216 77.39383766 -24.88701116 84.8097039 -27.40942383 92.2421875 C-29.49952292 98.42527858 -31.42149523 104.63648933 -33.22875977 110.9074707 C-34.56567137 115.54418051 -35.97646239 120.15099303 -37.4375 124.75 C-39.39560732 130.92509464 -41.18602261 137.13840452 -42.9375 143.375 C-45.02295425 150.78942689 -47.3178648 158.09425421 -49.81347656 165.37988281 C-51.87498699 171.46120276 -53.62843372 177.60449553 -55.26391602 183.81323242 C-56.56055778 188.6749328 -58.1717323 193.31078314 -60 198 C-64.94701003 197.36616434 -69.36745464 195.89608951 -74 194.125 C-75.70035303 193.48783326 -77.40088649 192.8511479 -79.1015625 192.21484375 C-80.03774414 191.86276855 -80.97392578 191.51069336 -81.93847656 191.14794922 C-87.74225646 188.97176317 -93.55752468 186.82675887 -99.375 184.6875 C-100.01268311 184.4528302 -100.65036621 184.2181604 -101.30737305 183.97637939 C-111.85773322 180.09881468 -122.46347253 176.40307742 -133.10083008 172.77026367 C-141.79607882 169.78922014 -150.43936326 166.681918 -159.0625 163.5 C-159.69023315 163.26841187 -160.31796631 163.03682373 -160.96472168 162.79821777 C-161.59221313 162.56671021 -162.21970459 162.33520264 -162.86621094 162.09667969 C-174.50419984 157.80359908 -186.18195113 153.62764481 -197.86914062 149.47070312 C-206.24901299 146.48866261 -214.62386929 143.4925294 -223 140.5 C-226.63408006 139.20172626 -230.26819265 137.90354361 -233.90234375 136.60546875 C-234.77920334 136.29226181 -235.65606293 135.97905487 -236.55949402 135.65635681 C-241.62342104 133.84786049 -246.68821389 132.04182673 -251.75390625 130.23828125 C-257.29503616 128.26527081 -262.83346195 126.28484741 -268.37011719 124.29931641 C-271.03391237 123.34581103 -273.69858864 122.39501362 -276.36425781 121.44677734 C-280.21915847 120.07512041 -284.07127681 118.69587458 -287.92184448 117.31210327 C-289.42282462 116.77409082 -290.92470957 116.23859548 -292.42752075 115.70571899 C-294.51014671 114.96676975 -296.58934632 114.21887382 -298.66796875 113.46875 C-299.86703857 113.04013672 -301.0661084 112.61152344 -302.30151367 112.16992188 C-305 111 -305 111 -306 109 C-305.26515381 108.74009277 -304.53030762 108.48018555 -303.77319336 108.21240234 C-287.0829677 102.30637418 -270.40738341 96.36092338 -253.74649048 90.37265015 C-240.54512211 85.62796642 -227.33707484 80.90228506 -214.125 76.1875 C-201.24873015 71.59205404 -188.37707655 66.98444399 -175.515625 62.34765625 C-167.20028691 59.35017485 -158.88158445 56.36206511 -150.5625 53.375 C-149.74252533 53.08057007 -148.92255066 52.78614014 -148.07772827 52.48278809 C-134.76523404 47.70343582 -121.44639049 42.94199268 -108.125 38.1875 C-96.24445396 33.94725074 -84.36562576 29.70269055 -72.49926758 25.42285156 C-66.1995668 23.15091511 -59.89746512 20.88576893 -53.59375 18.625 C-52.33913467 18.17497871 -52.33913467 18.17497871 -51.05917358 17.71586609 C-47.6239541 16.48370733 -44.18872728 15.25156973 -40.75323486 14.02017212 C-32.72148439 11.1411521 -24.69045826 8.26119955 -16.6796875 5.32421875 C-15.64416748 4.94467041 -14.60864746 4.56512207 -13.54174805 4.17407227 C-11.69836809 3.49654223 -9.85600469 2.81623701 -8.01489258 2.13256836 C-2.21713975 0 -2.21713975 0 0 0 Z " fill="#020739" transform="translate(1033,935)"/>
<path d="M0 0 C5.56422244 0.61169598 10.52905433 1.99150931 15.8125 3.8125 C17.01314087 4.21952148 17.01314087 4.21952148 18.23803711 4.63476562 C22.99607992 6.26316601 27.67805992 8.01163106 32.32421875 9.9375 C40.8932628 13.34009851 49.67861541 16.25434621 58.4375 19.125 C61.89190652 20.26248339 65.26544892 21.48326746 68.625 22.875 C73.34531324 24.81506402 78.15351136 26.41088193 83 28 C88.57046408 29.82657689 94.03479176 31.75023284 99.44921875 34.00390625 C102.75829899 35.29611982 106.12449885 36.39703107 109.5 37.5 C113.65819587 38.85871998 117.77168126 40.25557027 121.8125 41.9375 C126.46759546 43.86347752 131.21598146 45.43129374 136 47 C141.57046038 48.82658491 147.03479164 50.75023279 152.44921875 53.00390625 C155.75830576 54.29612246 159.12453552 55.39690703 162.5 56.5 C166.67477624 57.86565326 170.81070391 59.26600622 174.875 60.9375 C179.05833203 62.65723845 183.29431759 64.19388576 187.5625 65.6875 C202.42500415 70.89383619 217.23363731 76.24820607 232.01953125 81.66796875 C232.90462372 81.99230392 233.78971619 82.3166391 234.70162964 82.65080261 C239.1124647 84.26747221 243.52259918 85.88601358 247.93164062 87.50756836 C258.8635206 91.5221372 269.83316646 95.41534603 280.83151245 99.24377441 C285.60499994 100.90845235 290.3679481 102.60150718 295.125 104.3125 C296.06730469 104.64572266 297.00960938 104.97894531 297.98046875 105.32226562 C298.87636719 105.64517578 299.77226563 105.96808594 300.6953125 106.30078125 C301.47922363 106.58091064 302.26313477 106.86104004 303.07080078 107.1496582 C305 108 305 108 307 110 C302.70386428 111.58534983 298.40704397 113.16881116 294.109375 114.75 C289.76372393 116.34906155 285.42055848 117.95472298 281.078125 119.5625 C266.93657837 124.78623333 252.75951252 129.87300685 238.49072266 134.73950195 C232.62356819 136.74086749 226.78928914 138.78335239 221 141 C211.89154094 144.47283821 202.77263457 147.8126823 193.5 150.82421875 C188.5247653 152.49558666 183.63653997 154.37086308 178.73828125 156.25390625 C168.30988788 160.23738604 157.76712819 163.87640678 147.2043457 167.48461914 C139.99408729 169.95119745 132.85100498 172.51955377 125.73828125 175.25390625 C115.30988788 179.23738604 104.76712819 182.87640678 94.2043457 186.48461914 C86.10107865 189.25668938 78.09243796 192.17086796 70.125 195.3125 C63.96065845 197.69336004 57.72578545 199.80805316 51.44384766 201.85668945 C45.46840187 203.81084341 39.60551033 205.9983607 33.73828125 208.25390625 C25.01258874 211.5869815 16.21329826 214.66608588 7.375 217.6875 C-3.55890602 221.42701683 -14.4272798 225.31629339 -25.26556396 229.32409668 C-34.62901694 232.78568709 -44.0201182 236.14588525 -53.47021484 239.36376953 C-58.64651168 241.1362858 -63.72811747 243.05530804 -68.78222656 245.15258789 C-70.8421523 245.93968633 -72.8509538 246.51667914 -75 247 C-73.44525815 240.04457594 -71.49206362 233.29942877 -69.1875 226.5625 C-66.96988987 220.06836476 -64.96840961 213.54742234 -63.125 206.9375 C-60.98300226 199.27307602 -58.65087435 191.6920671 -56.1875 184.125 C-53.07445628 174.55327216 -50.20512742 164.92566545 -47.4375 155.25 C-44.65956063 145.53947522 -41.7221615 135.91421513 -38.45068359 126.35742188 C-36.18127317 119.68222047 -34.23116862 112.94427003 -32.33911133 106.15380859 C-30.38870181 99.21402418 -28.22557884 92.35604111 -26 85.5 C-23.19731453 76.86571787 -20.59007372 68.20357043 -18.1484375 59.4609375 C-16.3769087 53.17393584 -14.36669184 46.99721587 -12.25390625 40.81787109 C-9.69511064 33.25703198 -7.54944652 25.58886067 -5.390625 17.90625 C-3.70147948 11.90350147 -1.8757151 5.94712024 0 0 Z M16 31 C8.44964384 54.01463898 1.39616506 77.178276 -5.66601562 100.34619141 C-9.52111437 112.99138979 -13.38602742 125.63359282 -17.24940968 138.27626228 C-18.6820433 142.96460778 -20.11422232 147.65309179 -21.54592228 152.34172249 C-22.45349399 155.31379462 -23.36130386 158.28579398 -24.26911354 161.25779343 C-24.92629987 163.40971038 -25.5831123 165.56174124 -26.23991394 167.71377563 C-28.29251243 174.43595252 -30.3542933 181.15506764 -32.43798828 187.86767578 C-33.00272606 189.69021629 -33.00272606 189.69021629 -33.57887268 191.54957581 C-34.28127184 193.81380032 -34.98600419 196.07730283 -35.69346619 198.33995056 C-35.99966385 199.32741776 -36.30586151 200.31488495 -36.62133789 201.33227539 C-36.88926651 202.19107803 -37.15719513 203.04988068 -37.4332428 203.93470764 C-38.0882121 205.96450848 -38.0882121 205.96450848 -38 208 C-31.10237891 205.98572424 -24.2873729 203.79558377 -17.5 201.4375 C-16.4368457 201.06890869 -15.37369141 200.70031738 -14.27832031 200.32055664 C11.43859368 191.34958062 37.03521906 182.01856645 62.61883545 172.67527771 C68.16727974 170.65253431 73.7320272 168.68255201 79.3125 166.75 C89.13826243 163.33594104 98.90739167 159.7710133 108.67868042 156.2048645 C117.84082832 152.86201804 127.01514644 149.56512752 136.23046875 146.37109375 C142.47050493 144.20249515 148.66635921 141.92402575 154.85888672 139.6237793 C161.38049113 137.20904495 167.93884219 134.90944903 174.50854492 132.62939453 C181.10188748 130.33365349 187.649418 127.9257427 194.19165039 125.48876953 C199.07602737 123.67943797 203.98381089 121.98395617 208.9375 120.375 C214.52395148 118.54495555 219.92318524 116.45353556 225.32421875 114.13671875 C228.84393659 112.64148095 232.40860125 111.31224185 236 110 C233.3334294 107.8537828 230.96807927 106.44139918 227.73706055 105.32446289 C226.89161179 105.02806412 226.04616302 104.73166534 225.1750946 104.42628479 C224.25493057 104.11158737 223.33476654 103.79688995 222.38671875 103.47265625 C221.41076248 103.13205673 220.43480621 102.79145721 219.42927551 102.4405365 C217.30413343 101.69936223 215.17792034 100.96125339 213.05078125 100.22583008 C207.2509908 98.21973241 201.45969765 96.18938769 195.66796875 94.16015625 C194.45974457 93.73731354 193.25152039 93.31447083 192.00668335 92.8788147 C179.13074635 88.36290079 166.31457461 83.68657798 153.5 79 C134.84198066 72.18285854 116.1468903 65.48480105 97.40084839 58.91363525 C84.81156755 54.49939753 72.24971965 50.01732572 59.72265625 45.4296875 C58.43961155 44.96029086 57.15656104 44.49091008 55.87350464 44.02154541 C49.68292064 41.7557712 43.49573705 39.48108292 37.3125 37.1953125 C35.08470449 36.377416 32.85684338 35.55969816 30.62890625 34.7421875 C29.60853775 34.36190399 28.58816925 33.98162048 27.53688049 33.58981323 C26.59859909 33.24677155 25.66031769 32.90372986 24.69360352 32.55029297 C23.87924332 32.2492868 23.06488312 31.94828064 22.22584534 31.63815308 C19.74507119 30.81626778 19.74507119 30.81626778 16 31 Z " fill="#020737" transform="translate(1232,1079)"/>
<path d="M0 0 C-1.39392989 8.25525514 -3.77183006 16.09613492 -6.3125 24.0625 C-8.71922905 31.66809181 -11.0973032 39.27368926 -13.32421875 46.93359375 C-16.85736411 59.06126061 -20.69881894 71.09431918 -24.48876953 83.14355469 C-29.17367816 98.04691166 -33.71712582 112.97610277 -38 128 C-43.98780999 126.81567458 -49.56406858 125.20339417 -55.25 123 C-65.104423 119.26855594 -75.0593896 115.85132662 -85.03613281 112.46484375 C-95.05738872 109.04387858 -95.05738872 109.04387858 -98.75390625 107.41796875 C-102.98991719 105.5675813 -107.3202971 104.07135117 -111.6875 102.5625 C-112.57018555 102.25538086 -113.45287109 101.94826172 -114.36230469 101.63183594 C-119.99087535 99.67864561 -125.63089935 97.7641861 -131.296875 95.921875 C-134.89555129 94.69458077 -138.44549398 93.34907551 -142 92 C-150.69658199 88.70765666 -159.40616834 85.47698959 -168.18310547 82.40454102 C-177.82024784 79.02415175 -187.40730113 75.50407223 -197 72 C-197 71.34 -197 70.68 -197 70 C-178.14581684 63.04007527 -159.25179925 56.20719034 -140.30172729 49.51260376 C-133.51067446 47.11339485 -126.72214424 44.70705948 -119.93359375 42.30078125 C-119.26926645 42.06534544 -118.60493916 41.82990963 -117.92048073 41.5873394 C-107.41371206 37.86324608 -96.91744118 34.11143909 -86.4375 30.3125 C-85.77633179 30.07283508 -85.11516357 29.83317017 -84.43395996 29.58624268 C-83.77093872 29.34589294 -83.10791748 29.10554321 -82.42480469 28.85791016 C-81.05014674 28.35965492 -79.67547195 27.86144612 -78.30078125 27.36328125 C-77.60604706 27.11151123 -76.91131287 26.85974121 -76.19552612 26.6003418 C-64.51556871 22.37188888 -52.81868516 18.19029445 -41.125 14 C-39.97530731 13.58795319 -38.82561462 13.17590637 -37.64108276 12.75137329 C-28.48777086 9.47095811 -28.48777086 9.47095811 -24.5526886 8.06340027 C-20.16324376 6.4932911 -15.77478374 4.92103366 -11.39355469 3.328125 C-10.73072479 3.08811768 -10.0678949 2.84811035 -9.38497925 2.60083008 C-7.71400991 1.99524126 -6.04419837 1.38646021 -4.37451172 0.77734375 C-2 0 -2 0 0 0 Z " fill="#000360" transform="translate(996,974)"/>
</svg>
